# xmcd
#
# Track frame offsets: 
#        150
#        20928
#        41085
#        59534
#        83166
#        101434
#        119138
#        140797
#
# Disc length: 2262 seconds
#
# Revision: 0
# Processed by: cddbd v1.5.2PL0 Copyright (c) Steve Scherf et al.
# Submitted via: ExactAudioCopy v0.99pb4
#
DISCID=7908d408
DTITLE=Dollarqueen - Dollarqueen
DYEAR=1900
DGENRE=Rock and Roll
TTITLE0=No More Tomorrow
TTITLE1=The Bomb
TTITLE2=Schoolgirl Fool
TTITLE3=Rock 'n' Roll Star
TTITLE4=Freeway Man
TTITLE5=Save the Man
TTITLE6=NYCW
TTITLE7=Red Lights
EXTD=
EXTT0=
EXTT1=
EXTT2=
EXTT3=
EXTT4=
EXTT5=
EXTT6=
EXTT7=
PLAYORDER=
